<svg version="1.1" xmlns="http://www.w3.org/2000/svg" xmlns:xlink="http://www.w3.org/1999/xlink" viewBox="320 107 635 635"><defs><clipPath id="RTVVrneVgtgL"><path fill="none" stroke="none" d=" M 0 0 L 1276 0 L 1276 861 L 0 861 L 0 0 Z"/></clipPath></defs><g transform="scale(1,1)" clip-path="url(#RTVVrneVgtgL)"><g><path fill="none" stroke="rgb(255,255,255)" paint-order="fill stroke markers" d=" M 808.1352083044732 426.40797168053933 C 808.1352083044732 522.2212395073525 730.463208149203 599.8932396626228 634.64994032239 599.8932396626228 C 538.836672495577 599.8932396626228 461.16467234030677 522.2212395073525 461.16467234030677 426.40797168053933 C 461.16467234030677 330.5947038537262 538.836672495577 252.9227036984558 634.64994032239 252.9227036984558 C 730.463208149203 252.9227036984558 808.1352083044732 330.5947038537262 808.1352083044732 426.40797168053933 Z" stroke-opacity="1" stroke-linecap="round" stroke-linejoin="round" stroke-miterlimit="10" stroke-width="6.5"/><path fill="none" stroke="rgb(255,255,255)" paint-order="fill stroke markers" d=" M 596.0458364633464 595.5436017885951 L 596.5989956306161 590.5718219929065 L 596.8616256561543 585.2814679699918 L 596.8289463224298 579.8853005432627 L 596.4961774119109 574.5960805361308 L 594.9112499903647 565.1895260743061 L 593.6495310442745 561.4977132664366 L 592.89926641723 559.9977558285052 L 592.0686016512641 558.7638911718115 L 591.6229362583347 558.2550318214032 L 590.1683827043527 557.1724040461467 L 589.646652693891 556.9551431032859 L 589.1076583558411 556.8073748513671 L 588.55210474139 556.7277104102877 L 587.9806969017253 556.7147608999456 L 586.7931387515034 556.883451151064 L 586.178398543321 557.0623131523198 L 585.5506243146738 557.3023345639037 L 582.9232882191841 558.8462367114731 L 581.5497473795203 559.949033364566 L 580.1438118912417 561.2575790161063 L 577.2573186068328 564.4474731512555 L 571.3437742725577 572.8073636069112 L 568.406969774663 577.7995832743221 L 565.5436414242448 583.2148014660582 L 562.7989124972887 588.9641298555719 L 560.2179062697807 594.9586801163153 L 557.8457460177062 601.1095639217408 L 555.7275550170513 607.3278929453006 L 553.9084565438015 613.5247788604472 L 552.4333442041695 619.6117114101382 L 551.3284781061725 625.5308537574616 L 550.5880342972879 631.2771840473251 L 550.2030174434581 636.8509009751309 L 550.1644322106254 642.252203236281 L 550.4632832647326 647.4812895261776 L 551.0905752717218 652.5383585402227 L 553.2945008081168 662.1372395223666 L 556.7042461473501 671.0504357459292 L 561.2478486169614 679.2795367741276 L 566.8533455444904 686.8261321701777 L 573.4487742574769 693.6918114972968 L 580.9621720834605 699.878164318701 L 589.3215763499808 705.3867801976073 L 598.4550243845778 710.2192486972319 L 608.290553514791 714.3771593807918 L 613.4491101556099 716.2036522800524 L 618.7562010681603 717.8621018115034 L 624.2028309183844 719.352706670546 L 629.7800043722252 720.675665552583 L 635.4787260956246 721.8311771530164 L 641.2900007545254 722.8194401672479 L 647.2048330148699 723.6406532906797 L 653.2142275426008 724.2950152187141 L 659.3091890036603 724.7827246467529 L 665.4807220639912 725.1039802701985 L 671.7198313895353 725.2589807844527 L 678.0175216462358 725.2479248849176 L 684.3647975000347 725.0710112669952 L 690.7526636168749 724.728438626088 L 697.1721246626984 724.2204056575976 L 703.6141853034477 723.5471110569263 L 710.0698502050657 722.7087535194762 L 716.5301240334943 721.7055317406491 L 722.9860114546765 720.5376444158476 L 729.4285171345543 719.2052902404732 L 735.8486457390703 717.7086679099284 L 742.2374019341671 716.047976119615 L 748.5857903857874 714.2234135649353 L 754.8848157598732 712.235178941291 L 761.1254827223667 710.0834709440846 L 767.2987959392112 707.7684882687181 L 773.3957600763488 705.2904296105935 L 779.4073797997219 702.6494936651128 L 785.3246597752726 699.8458791276782 L 791.1386046689445 696.8797846936916 L 796.8402191466788 693.7514090585552 L 802.4205078744185 690.460950917671 L 807.8704755181059 687.0086089664414 L 813.1811267436836 683.3945819002679 L 818.3434662170945 679.6190684145531 L 823.3484986042802 675.6822672046987 L 832.8513475633858 667.3261755442434 L 841.6490797379762 658.3543492694422 L 849.7434292862364 648.8305252761355 L 853.528343702454 643.8823466977868 L 857.1392222144432 638.8210477651029 L 860.5766680729881 633.65492150318 L 863.8412845288733 628.3922609371187 L 866.933674832884 623.0413590920131 L 869.8544422358037 617.6105089929605 L 872.6041899884183 612.1080036650592 L 875.1835213415116 606.5421361334056 L 877.5930395458681 600.9211994230975 L 879.8333478522729 595.2534865592304 L 881.9050495115106 589.5472905669021 L 883.8087477743647 583.810904471211 L 885.5450458916216 578.0526212972525 L 887.1145471140643 572.2807340701245 L 888.5178546924785 566.5035358149246 L 889.7555718776482 560.7293195567486 L 890.828301920358 554.9663783206943 L 891.7366480713928 549.2230051318588 L 892.4812135815366 543.5074930153393 L 893.0626017015752 537.8281349962324 L 893.4814156822922 532.1932240996359 L 893.7382587744723 526.6110533506455 L 893.8337342289004 521.0899157743618 L 893.7684452963607 515.6381043958766 L 893.5429952276384 510.2639122402902 L 893.1579872735176 504.9756323327005 L 892.6140246847829 499.7815576982031 L 891.9117107122192 494.68998136189407 L 890.0344416187426 484.8474956842362 L 887.5310059993645 475.5145195005005 L 884.4062298603619 466.75739701146676 L 880.6649392080117 458.64247241790923 L 876.3119600485902 451.2360899206062 L 871.3521183883745 444.60459372033426 L 865.7902402336412 438.81432801786866 L 859.6311515906677 433.9316370139882 L 852.8796784657299 430.0228649094697 L 845.5406468651051 427.154355905089 L 837.6146242003089 425.38545552316475 L 829.0495081785422 424.6889506102043 L 819.7576509475223 424.9792115737603 L 814.8115960233382 425.4672775197247 L 809.650737770607 426.1695128474146 L 804.2753954335515 427.0748653542122 L 798.7974750082919 428.17020499469044 L 793.392217968241 429.44122236146666 L 788.2355927362674 430.8735945107251 L 779.372111388398 434.16511138145086 L 776.0171921182643 435.99561021528064 L 774.68592401913 436.9507784438973 L 773.6147783478563 437.9301720563454 L 772.825748036148 438.9320005410063 L 772.5427966764158 439.44071759720725 L 772.3337153207372 439.95414613555596 L 772.1970382835716 440.47186836712814 L 772.1312998794037 440.99346650297514 L 772.1350344227671 441.51852275417895 L 772.2067762281708 442.04661933179074 L 772.3450596100995 442.5773384468926 L 772.5484188831111 443.1102623105419 L 773.1445023601491 444.18105312775543 L 773.983301175431 445.25564947198285 L 775.0530898449064 446.33070903174473 L 777.838734810653 448.46884855201637 L 781.4076333856237 450.56873319685275 L 790.5199758761275 454.5467838933739 L 795.8758120481548 456.3714729616049 L 801.6396863423455 458.0509531875241 L 807.7177948868849 459.55848607940146 L 814.016333810082 460.8673331455317 L 820.4414992401466 461.9507558941726 L 826.8994873052645 462.78201583362494 L 833.2964941336459 463.33437447216505 L 839.5387158634107 463.581093321667 L 845.5487423691552 463.50151075645806 L 851.3130911798186 463.09866197880046 L 856.833860208679 462.3813575583253 L 862.1131473690255 461.35840806468514 L 871.9556677372982 458.43081613643994 L 880.8574355909036 454.38637075119914 L 888.8352342361057 449.2955564660725 L 895.9058469791743 443.2288578381758 L 902.0860571263731 436.25675942463107 L 907.3926479839677 428.4497457825479 L 911.8424028582231 419.8783014690607 L 915.4521050554077 410.61291104127906 L 918.238537881784 400.7240590563251 L 919.3282730641299 395.56786140400595 L 920.2184846436251 390.28223007131754 L 920.911270533546 384.87597562788164 L 921.4087286471881 379.3579086433662 L 921.7129568978248 373.7368396873807 L 921.8260531987451 368.02157932959307 L 921.7501154632268 362.22093813963124 L 921.4872416045594 356.3437266871232 L 921.0395295360207 350.39875554172755 L 920.4090771708982 344.3948352730785 L 919.59798242247 338.3407764508101 L 918.6083432040266 332.24538964456565 L 917.4422574288446 326.1174854239824 L 916.1018230102101 319.96587435870356 L 914.5891378614056 313.79936701837875 L 912.906299895717 307.6267739726204 L 911.0554070264225 301.4569057911027 L 909.0385571668111 295.2985730434381 L 906.8578482301608 289.16058629927625 L 904.5153781297593 283.0517561282603 L 902.0132447788859 276.9808931000306 L 899.3535460908253 270.95680778421496 L 896.5383799788631 264.98831075046303 L 893.5698443562791 259.0842125684242 L 890.4500371363591 253.25332380770797 L 887.1810562323844 247.50445503798537 L 883.764999557641 241.84641682888125 L 880.2039650254098 236.2880197500389 L 876.5000505489755 230.8380743711079 L 872.6553540416176 225.50539126170068 L 868.6719734166264 220.29878099148524 L 864.5520065872743 215.22705413009263 L 855.910705968647 205.52349291231218 L 846.748235492001 196.46519216549973 L 837.0813784636047 188.12263644677117 L 832.0640497757104 184.24178939702819 L 826.9270192439843 180.56611684925065 L 821.6751914992615 177.09905603029523 L 816.3164073999412 173.8384228834703 L 810.8586550681166 170.78175142181274 L 805.309922625887 167.92657565836276 L 799.6781981953271 165.27042960616654 L 793.9714698985609 162.81084727826413 L 788.1977258576383 160.54536268770192 L 782.3649541946771 158.4715098475075 L 776.4811430317521 156.58682277072722 L 770.5542804909501 154.88883547040734 L 764.5923546944014 153.3750819595848 L 758.6033537641558 152.0430962513028 L 752.5952658223251 150.89041235860452 L 746.5760789909964 149.91456429453308 L 740.5537813922501 149.1130860721163 L 734.5363611481736 148.4835117044065 L 728.5318063808907 148.0233752044408 L 722.5481052124636 147.73021058526234 L 716.5932457649795 147.60155185991113 L 710.6752161605623 147.6349330414273 L 704.8020045212867 147.8278881428633 L 698.9815989692272 148.17795117724376 L 693.2219876264832 148.68265615761186 L 687.5311586151479 149.3395370970169 L 681.9171000573205 150.14612800849903 L 676.3878000750757 151.0999629050952 L 670.9512467905251 152.19857579984551 L 665.6154283257621 153.4395007058024 L 660.3883328028487 154.8202716359936 L 655.2779483438844 156.33842260346233 L 645.4392651062124 159.777000702411 L 636.1632835894605 163.73550710696907 L 627.5139087703739 168.19421392148814 L 619.5550456256484 173.1333932502611 L 612.3505991320292 178.5333171976456 L 605.964474266243 184.37425786796547 L 600.4605760050288 190.63648736553824 L 595.9028093251071 197.30027779470007 L 592.3550792032107 204.34590125978391 L 589.8812906160603 211.7536298651228 L 588.5453485404009 219.5037357150374 L 588.4083441104425 227.5792226676305 L 589.4687032767974 236.0239316238241 L 591.6633066801758 244.94145332345948 L 594.9264451162741 254.43789279742322 L 596.9375919815426 259.4339813328545 L 599.1705996052702 264.531088813458 L 604.0939919280281 274.3717523632762 L 609.2732325555309 282.6184217547789 L 611.8260505602387 285.72303653699504 L 614.2835361329877 287.92398625392195 L 614.8767893920544 288.3132929494203 L 615.4599360795455 288.63296519983794 L 616.5927240815066 289.05361991861776 L 617.1414706543897 289.15358267084537 L 617.6783050570701 289.18178212404615 L 618.2031460900723 289.139740210749 L 618.7159125539386 289.028978861905 L 619.2165232492238 288.85102000925417 L 620.6446087289396 287.9291777444803 L 621.5343982157289 287.0065307946699 L 622.3736158411422 285.8516201874478 L 623.8977371252034 282.89370981210925 L 625.2117758157802 279.15285023956903 L 627.1888183550782 269.7118979874981 L 627.8414286731197 264.20661255017603 L 628.2631693362927 258.3079924002669 L 628.4488435792481 252.11344115867794 L 628.393254636643 245.72036244730228 L 628.091205743122 239.2261598864554 L 627.5375001333671 232.7282370974389 L 626.7269410419981 226.32399770194883 L 625.6543317036906 220.11084532049782 L 624.3153135330073 214.17980207891742 L 622.7135259066727 208.5609974980858 L 620.8570444304785 203.25078580190745 L 618.7539920119193 198.24516108167006 L 613.8406659779691 189.13164893398405 L 608.0385310651006 181.18841378504604 L 601.4125705336785 174.38340836496045 L 594.0277676439933 168.68458540379476 L 585.9491056564349 164.05989763162876 L 577.2415678312691 160.47729777846837 L 567.9701374288607 157.90473857443027 L 558.1997977094635 156.3101727495697 L 553.1478441248066 155.86962258246706 L 547.9955319335286 155.66155303395414 L 542.7509840431487 155.68195819525698 L 537.4223233612605 155.92683215763867 L 532.0176727953832 156.39216901235 L 526.5451552530362 157.07396285069092 L 521.012893641813 157.96820776386284 L 515.4290108692081 159.0708978431905 L 509.8016298427659 160.378027179863 L 504.13887347005493 161.8855898651804 L 498.44886465856985 163.58957999039336 L 492.73972631592875 165.4859916467404 L 487.0195813495771 167.57081892553373 L 481.2965526671329 169.84005591796256 L 475.5787631760909 172.28969671531453 L 469.87433578399504 174.91573540885275 L 464.19139339841416 177.71416608986493 L 458.5380589268923 180.6809828495525 L 452.92245527692415 183.81217977919079 L 447.3527053561031 187.10375097005524 L 441.83693207189924 190.55169051338422 L 436.3832583319306 194.15199250045313 L 430.9998070437166 197.9006510225127 L 425.69470111475187 201.793660170826 L 420.4760634526299 205.82701403664373 L 415.3520169648947 209.9967067112413 L 405.4201891426128 218.72908485172957 L 395.96420090830793 227.9587473224199 L 387.0490355222833 237.65364685331812 L 382.8145686662177 242.66554574446897 L 378.7396762448419 247.78173617449175 L 374.8324811657248 252.99821223457562 L 371.1011063363363 258.31096801604525 L 367.55367466431915 263.715997610102 L 364.19830905711876 269.2092951080214 L 361.04313242230387 274.78685460107874 L 358.0962676674185 280.4446701804878 L 355.36583770003136 286.17873593754854 L 352.85995287097006 291.9850426640402 L 350.5833789766595 297.8587023321223 L 348.5330528924666 303.7927697754557 L 346.704792908967 309.78000590692983 L 345.0944173166744 315.8131716393354 L 343.69774440605346 321.88502788551244 L 342.51059246766727 327.98833555832573 L 341.5287797920173 334.11585557054127 L 340.7481246696051 340.2603488350978 L 340.1644453910062 346.4145762647367 L 339.77356024666045 352.57129877232273 L 339.5712875271556 358.7232772706713 L 339.5534455229687 364.86327267262243 L 339.7158525246257 370.98404589101614 L 340.0543268226405 377.07835783869257 L 340.564686707564 383.138969428467 L 341.2427504698607 389.1586415732043 L 342.0843364000815 395.1301351856951 L 343.0852627887524 401.04621117875485 L 344.2413479263628 406.89963046532216 L 345.548410103451 412.6831539581139 L 347.00226761054324 418.3895425699947 L 348.5987387381165 424.01155721385396 L 350.33364177672144 429.54195880245777 L 352.20279501688435 434.97350824864617 L 354.20201674909435 440.29896646525924 L 356.32712526391464 445.511094365137 L 358.5739388517974 450.60265286111957 L 360.9382758033181 455.56640286602226 L 366.0027929592302 465.0815210539977 L 371.4872230558603 473.9985362316111 L 377.3581124172945 482.25953570165706 L 383.5820073676805 489.8066067667079 L 390.12545423119076 496.58183672945944 L 396.95499933194833 502.52731289250886 L 404.03718899410103 507.5851225586259 L 411.33856954179646 511.69735303043245 L 418.82568729915783 514.806091610501 L 426.4650885903328 516.8534256015764 L 434.22331973951856 517.7814423062808 L 442.06692707080106 517.5322290273838 L 449.9636753983676 516.0486640802824 L 457.9405494333149 513.3120698308725 L 466.10912116410395 509.3586805539742 L 474.5874575761553 504.2289469115107 L 483.4520511791043 497.98426245808355 L 492.0810731536885 491.0377958912154 L 499.2732503909017 484.09460747566555 L 503.80977054820085 477.868592755164 L 504.1294071116404 477.1763225351751 L 504.3861245961955 476.5078070991581 L 504.70128036419703 475.24761788918 L 504.7553966244567 474.6585457744371 L 504.7404843127757 474.0973520816636 L 504.6580441158793 473.563777804689 L 504.50957787645723 473.05756344515555 L 504.02057463527285 472.1261764865592 L 503.28548932521824 471.301115221774 L 502.316336685445 470.58030366660074 L 501.12513145431546 469.96166583654446 L 499.72388836743096 469.4431257475046 L 498.12462216197076 469.0226074150847 L 494.38007934877305 468.4673320828151 L 485.04336475586206 468.44169918920517 L 479.64342877417073 468.9381258789029 L 473.8839308692478 469.7519041605577 L 467.86098893970996 470.86642615978707 L 461.67072088654027 472.2650840022089 L 455.4092446071718 473.93126981363804 L 449.1726780021935 475.84837571949504 L 443.05713897101054 477.99979384559487 L 437.15874541145064 480.3689163176538 L 431.57219835649175 482.9392685568349 L 426.34749927568623 485.69858122023453 L 416.9698765693619 491.75512186218054 L 408.983201208281 498.4820305862163 L 402.3417692784743 505.8230845867625 L 396.9998768656276 513.7220610583876 L 392.91182005572205 522.1227371953645 L 390.0318949346406 530.9688901924095 L 388.3143975882661 540.2042972436477 L 387.7136241024814 549.7727355436474 L 388.1838705631199 559.6179822868788 L 388.8063438003126 564.6268391978981 L 389.6794330562125 569.6838146677131 L 390.79742534173346 574.7818808455095 L 392.1546076674939 579.9140098806697 L 393.74526704430923 585.0731739224287 L 395.56369048294573 590.2523451201199 L 397.6041649939722 595.4444956231259 L 399.8609775884014 600.6425975806322 L 402.32841527670365 605.8396231419724 L 405.0007650697438 611.0285444564796 L 407.8723139782386 616.202333673438 L 410.937349012905 621.353962942181 L 414.19015718445985 626.4764044119929 L 417.6250255037186 631.5626302321575 L 421.2362409813488 636.6056125520577 L 425.0180906280673 641.5983235208787 L 433.0708404719327 651.4048200027655 L 441.73757112104954 660.9258968722877 L 450.97257866149795 670.1053313238167 L 460.73015917896356 678.8869005518227 L 465.79063183096855 683.1109160802455 L 470.9646087594771 687.214381750726 L 476.2463769752059 691.190269712647 L 481.63022348887205 695.0315521150953 L 487.1104353111922 698.7312011074539 L 492.6812994529819 702.2821888392036 L 498.3371029249088 705.677487459481 L 504.07213273778814 708.91006911757 L 509.88067590223847 711.9729059628532 L 515.7570194291244 714.8589701446642 L 521.6954503291134 717.5612338122379 L 527.6902556128732 720.0726691148088 L 533.7357222912193 722.3862482019076 L 539.8261373748685 724.4949432225226 L 545.9557878746361 726.3917263263324 L 552.1189608011899 728.0695696623252 L 558.3099431652466 729.5214453799822 L 564.5230219775233 730.7403256285384 L 570.752434400404 731.720713287247 L 576.9921456918581 732.4654608857135 L 583.2360288561537 732.9802538376189 L 589.4779568230549 733.2707798566904 L 595.7118025223758 733.3427266566059 L 601.9314388838807 733.2017819511418 L 608.1307388374327 732.8536334539758 L 614.3035753125988 732.3039688789338 L 620.4438212393902 731.5584759395457 L 626.5453495475222 730.6228423495879 L 632.6020331666601 729.5027558228369 L 638.6077450266675 728.2039040728719 L 644.5563580573579 726.7319748136664 L 650.4417451883478 725.0926557587505 L 656.2577793497961 723.2916346219006 L 661.9983334710729 721.3345991167946 L 667.6572804821398 719.2272369572581 L 673.2284933126625 716.9752358568212 L 678.7058448927016 714.5842835292602 L 684.0832081516761 712.060067688401 L 689.3544560195478 709.4082760479705 L 694.5134614260319 706.634596321548 L 704.4702365742397 700.7443234657344 L 713.9045170344153 694.4347508307278 L 722.7672862448221 687.7513801263949 L 731.0095276435756 680.7397130624045 L 738.5822246690872 673.4452513484754 L 745.4363607594723 665.9134966944246 L 751.5229193529453 658.1899508099211 L 756.7928838878189 650.3201154046837 L 761.1972378022085 642.3494921885292 L 764.6869645346242 634.3235828710777 L 767.2130475228857 626.2878891620969 L 768.7264702055031 618.2879127714532 L 769.1782160205917 610.3691554087663 L 768.5192684066124 602.5771187838536 L 766.700610801434 594.9573046063348 L 763.6733388071593 587.5549086405913 L 759.4069733042197 580.3648681804443 L 753.9097830298138 573.2764283541542 L 747.194932086833 566.1654812430253 L 739.2881011859242 558.9230523780698 L 730.6284827642066 551.9401317314441 L 722.1536157717201 546.2102448901202 L 714.8307081589082 542.7627893189252 L 714.044513340307 542.5436096408367 L 713.2933195893504 542.3781878288373 L 711.9034916054788 542.2166599712308 L 711.2686355261735 542.2245750096864 L 710.6761724049577 542.294063195768 L 710.126326048872 542.4248371686449 L 709.618516881638 542.6155009834968 L 708.7266613894478 543.1708723664391 L 707.9959084612924 543.9489257929114 L 707.421560631655 544.9384097080742 L 707.1915706706832 545.5089219898024 L 706.9989204346241 546.1280725602439 L 706.5899730778926 549.0629288609804 L 706.594270986764 550.7856192053907 L 706.7314866657799 552.6634822761287 L 708.5155777737424 561.5016307445039 L 710.0829958435756 566.5592009518582 L 712.0505559583321 571.9224185771452 L 714.3806783926935 577.5012711966398 L 717.0357834197639 583.2057463881945 L 719.9782913165916 588.9458317257171 L 723.1706223570694 594.6315147878491 L 726.5751968162735 600.1727831532321 L 730.1544349688857 605.4796243941961 L 737.6947229748585 615.0546863839832 L 745.6333371404783 623.069178996471 L 753.9223745429516 629.5702746013376 L 762.517192077987 634.6150419713426 L 771.3731466409972 638.2605498796404 L 780.4455951273949 640.5638670995828 L 789.6898944323955 641.5820624042253 L 799.0614014518061 641.3722045669198 L 808.5154730809408 639.9913623608204 L 818.0074662152122 637.4966045587856 L 827.4927377498358 633.9449999344631 L 836.9266445806187 629.3936172611059 L 846.2645436028749 623.8995253112763 L 855.4617917120173 617.5197928590165 L 864.4737458033597 610.311488676692 L 873.2557627727094 602.3316815380488 L 881.7631995150845 593.6374402161424 L 889.9514129261936 584.2858334840289 L 897.7757599015479 574.3339301152571 L 901.5375325054424 569.1507011835994 L 905.1915973361656 563.838798882784 L 908.7323740058043 558.4053568091839 L 912.1542821259525 552.8575085595668 L 915.4517413087955 547.2023877307001 L 918.6191711662227 541.4471279191542 L 921.6509913100253 535.5988627214996 L 924.5416213521917 529.6647257347008 L 927.2854809048083 523.651850554934 L 929.8769895795677 517.5673707789665 L 932.3105669885568 511.41842000405904 L 934.5806327436651 505.21213182609165 L 936.6816064568809 498.95563984183195 L 938.6079077400937 492.65607764804736 L 940.3539562050945 486.3205788418014 L 941.9141714639702 479.95627701907273 L 943.2829731286104 473.5703057769247 L 944.4547808109046 467.16979871182906 L 945.4240141229398 460.761889420652 L 946.1850926766056 454.35371149966795 L 946.7324360836926 447.95239854603903 L 947.0604639560909 441.56508415584244 L 947.1635959059859 435.19890192594437 L 947.0362515450695 428.8609854534082 L 946.6733264778873 422.5583758798794 L 946.0765235418671 416.29679214570865 L 945.2526292137115 410.08096577037645 L 944.2085520057882 403.91560457051867 L 942.9512004299713 397.8054163618837 L 941.4874829985296 391.7551089609102 L 939.8243082236334 385.76939018374094 L 937.9685846170582 379.8529678466174 L 935.9272206915664 374.0105497655837 L 933.7071249585388 368.2468437570785 L 931.3152059306387 362.566557637146 L 928.7583721199378 356.9743992221263 L 926.0435320385077 351.47507632786625 L 923.1775941982228 346.0732967710018 L 920.1674671118448 340.77376836747857 L 917.0200592909523 335.58119893363653 L 913.7422792479126 330.5002962855199 L 910.3410354946989 325.5357682395673 L 903.195790906627 315.97466721823236 L 895.6395936239996 306.9355583995632 L 887.7277117439808 298.4561043128994 L 879.5154133635378 290.57396748777796 L 871.0579665794404 283.3268104541302 L 862.4106394889516 276.7522957413945 L 853.6287001894327 270.8880858791077 L 844.7674167778512 265.7718433970039 L 835.8820573509764 261.4412308246201 L 827.0278900061703 257.9339106914932 L 818.2601828403997 255.287545527456 L 809.6342039508289 253.5397978618481 L 801.205221434228 252.72833022460088 L 793.0285033885499 252.89080514495546 L 785.1593179098743 254.0648851527446 L 777.65293309576 256.28823277740656 L 770.5646170429768 259.59851054877413 L 763.9496234892171 264.0333791606853 L 757.8258146802754 269.6257250862285 L 752.0926471583566 276.39331649274453 L 746.626195436717 284.3509360813142 L 741.3060803439794 293.5087531331161 L 736.3208953883554 303.47499217897484 L 732.4035933882452 313.1497168963218 L 730.3425383363018 321.3609061739618 L 730.2096995610772 323.0476798589709 L 730.2544671606385 324.5514184268264 L 730.4891593170948 325.8538090578231 L 730.6814799318695 326.4238864373326 L 730.9242211389865 326.9386775845843 L 731.5560970190504 327.80583583241463 L 732.3748940514856 328.46233153147415 L 733.3706880750713 328.91524809160353 L 734.5335549206977 329.1716689242212 L 735.8535704350336 329.23867744232336 L 737.3208104584361 329.1233570541729 L 740.6572673875594 328.374063211099 L 744.463532418303 326.9804546895027 L 748.6602122719474 324.9991987807316 L 757.9072433093938 319.500413967055 L 767.763214225963 312.331047105583 L 777.5929787587646 303.94443653498524 L 786.7613906322854 294.7939205876199 L 794.6427722776709 285.3271282284921 L 800.9170973830794 275.80738889528493 L 805.6286280988826 266.2783758256712 L 808.842936056193 256.770913212309 L 810.6255928867149 247.3158252480535 L 811.0421702219556 237.94393612556274 L 810.158239694211 228.68607003759342 L 808.0393729341993 219.5730511768036 L 804.7511415740194 210.63570373614715 L 800.3591172451783 201.9048519082821 L 794.9288715797749 193.41131988566926 L 788.5259762091189 185.18593186136115 L 781.2160027647177 177.25951202791722 L 773.0645228784726 169.66288457809407 L 764.1371081816937 162.42687370464847 L 754.4993303064797 155.5823036000411 L 749.434546311633 152.31644139670118 L 744.2167608839433 149.15999845752174 L 738.8541704773984 146.11682780734935 L 733.3549715461833 143.1907824696499 L 727.7273605444827 140.38571546867814 L 721.9795339251011 137.70547982878765 L 716.1196881428152 135.15392857393732 L 710.1560196510208 132.7349147280862 L 704.0967249046918 130.45229131548905 L 697.9500003576187 128.30991136020356 L 691.724042462803 126.31162788628723 L 685.427047674627 124.46129391760053 L 679.0672124470782 122.7627624787927 L 672.6527332343418 121.21988659342827 L 666.1918064909968 119.83651928566348 L 659.6926286690589 118.61651358004895 L 653.1633962242908 117.56372250024788 L 646.6123056100885 116.68199907021926 L 640.0475532800451 115.97519631451371 L 633.4773356885429 115.44716725679444 L 626.9098492887807 115.10176492151345 L 620.3532905359295 114.94284233272839 L 613.8158558835827 114.97425251410237 L 607.305741785136 115.1998484902847 L 600.8311446949718 115.62348328493852 L 594.4002610666832 116.24900992251582 L 588.0212873548497 117.08028142677847 L 581.7024200126701 118.1211508219813 L 575.4518554949209 119.37547113228044 L 569.2777902546037 120.84709538153629 L 563.1883910991407 122.53980952917607 L 557.1899455426903 124.45314845321627 L 551.2857689626818 126.57992385985654 L 545.4789140156963 128.91235316453248 L 539.7724333584139 131.4426537816937 L 534.1693796477116 134.16304312717023 L 528.6728055404667 137.06573861639765 L 523.2857636930632 140.14295766481172 L 518.0113067626743 143.38691768725636 L 512.8524874057825 146.78983609916713 L 502.8939720397031 154.04141775372148 L 493.4346388489548 161.83544194979044 L 484.4989090874702 170.10964801105627 L 476.11120400947755 178.80177525922912 L 468.2959448687121 187.84956301759678 L 461.077552919501 197.19075060767213 L 454.48044941577655 206.76307735294023 L 448.52905561137277 216.50428257530842 L 443.24779276071513 226.3521055978673 L 438.6610821173417 236.24428574272144 L 434.7933449355796 246.11856233296146 L 431.66900246945977 255.9126746897057 L 429.3124759728162 265.56436213762265 L 427.7481866999758 275.01136399763357 L 427.0005559046738 284.1914195926317 L 427.09400484104003 293.04226824531327 L 428.05295476320424 301.5016492783746 L 429.9018269251975 309.5073020143146 L 432.66504258065646 316.9969657750405 L 436.36702298430254 323.9083798838402 L 441.03218938947657 330.1792836632127 L 446.6849630505056 335.7474164352625 L 453.35214688048063 340.57502060405574 L 461.07211020502086 344.7433366650395 L 469.88672858439395 348.3696780888147 L 479.83721777769404 351.5710630541421 L 485.1925434333252 353.0219873984927 L 490.6292184198152 354.31041678333764 L 495.9825427882315 355.3729840928504 L 501.08781665906673 356.14632220489295 L 509.8954132132457 356.57184238903966 L 511.6849371612247 356.39844306719226 L 513.2683360681496 356.09729022633496 L 514.6250224254143 355.6604629710724 L 515.7344651400578 355.0800708015061 L 516.5850050208743 354.35300374899987 L 517.1834414966058 353.48609810851127 L 517.5388769013955 352.4874310761986 L 517.6604135536085 351.3650798355975 L 517.6363143269184 350.7600467544797 L 517.557153787388 350.12712157024356 L 517.2381999274103 348.7816334794508 L 515.9896192469785 345.8003765651583 L 513.9874901381247 342.48592659571716 L 511.3046312298163 338.90290108990337 L 504.1879985212372 331.1895934937694 L 495.2222701277341 323.17739387331574 L 490.22804161563715 319.22075333157983 L 484.9899950621108 315.3832423156347 L 479.5809490929664 311.72947834110033 L 474.07372233717143 308.32407892359686 L 468.54113342053734 305.2316615566546 L 463.05369890004965 302.5144595347676 L 457.64459203390084 300.19603007551837 L 452.3166812177337 298.2685439538068 L 447.07195972876286 296.72326560226725 L 441.9124208441049 295.5514594488007 L 436.84005784117164 294.74438992406925 L 431.85686399747397 294.29332145755166 L 422.1659568960533 294.42424542141225 L 412.85564575835076 295.8743467797626 L 403.94187680297307 298.57374097198317 L 395.440596247738 302.45254343824286 L 387.3677503114493 307.4408696183166 L 379.73928521241794 313.4688349527678 L 372.57114716905323 320.46655488058235 L 365.87928239956744 328.3641448415349 L 359.67963712236997 337.09172027579467 L 353.98815755596877 346.5793966235308 L 351.3379631075513 351.5864337145369 L 348.82078991857617 356.75728932412346 L 346.4386312665541 362.08322788137474 L 344.1934804286015 367.5555138177419 L 342.087330682229 373.1654115611257 L 340.12217530455285 378.9041855429773 L 338.3000075728866 384.76310019317 L 336.622820764741 390.7334199415768 L 335.09260815713367 396.80640921807117 L 333.71136302747675 402.97333245252617 L 332.4810786529851 409.22545407481505 L 331.4037483111695 415.55403851560004 L 330.48136527894906 421.9503502039653 L 329.7159228341302 428.40565357057307 L 329.10941425353343 434.91121304529656 L 328.6638328148667 441.45829305643116 L 328.3811717951477 448.0381580370057 L 328.2634244716899 454.6420724153157 L 328.3125841218069 461.2613006212342 L 328.53064402281206 467.8871070854235 L 328.9195974522162 474.51075623696784 L 329.4814376869383 481.12351250692376 L 330.21815800468636 487.7166403243757 L 331.1317516822809 494.28140411919674 L 332.22421199742973 500.80906832204914 L 333.49753222715066 507.2908973624116 L 334.9537056489543 513.7181556709463 L 336.594725539957 520.0821076775264 L 338.4225851776694 526.3740178112363 L 340.43927783920793 532.5851505035268 L 342.6467968017874 538.7067701819049 L 345.0471353431157 544.7301412793988 L 347.6422867400134 550.6465282235156 L 350.4342442699911 556.447195445706 L 353.42500110245294 562.1234074492374 L 356.6145820561705 567.6677501190586 L 359.9960293146258 573.0774968972723 L 363.5608373838827 578.3509602076085 L 367.3005007660605 583.4864524732541 L 371.20651396761764 588.4822861178898 L 379.48356783931933 598.0482272379152 L 388.3239550329039 607.0352829555501 L 397.65963158070974 615.4299526587085 L 407.4225535146807 623.2187357356502 L 412.4429677605731 626.8817008478371 L 417.5446768671552 630.3881315738454 L 422.71917533615203 633.7363403373058 L 427.95795767244397 636.924639561751 L 433.2525183793337 639.9513416702201 L 438.59435196249075 642.8147590867388 L 443.9749529236399 645.5132042345437 L 449.3858157684506 648.0449895371671 L 454.81843500061996 650.4084274182402 L 460.2643051254231 652.6018303009008 L 465.7149206445847 654.623510609076 L 471.16177606456324 656.4717807660022 L 476.59636588747793 658.1449531951132 L 482.01018461860383 659.6413403200403 L 487.3947267604546 660.9592545643158 L 492.74148682027766 662.0970083513733 L 498.0419592997978 663.0529141047457 L 503.2876387031065 663.8252842476692 L 508.4700195350845 664.4124312040708 L 513.5805962982454 664.812667397187 L 523.5523156400048 665.0456571873978 L 533.1347527591455 664.5107530067578 L 542.259863689978 663.1944542428364 L 550.8596044644463 661.0832602837945 L 558.8659311148886 658.1636705173985 L 566.2107996748267 654.4221843319078 L 572.8261661765991 649.8453011148916 L 578.6439866525441 644.4195202546094 L 583.5962171346055 638.1313411389261 L 587.6148136570939 630.9672631556083 L 590.6596084875306 622.9344305273083 L 592.9014052151064 614.1962304705735 L 594.6075370588825 604.9875389831432 L 596.0458364639144 595.5436017890431" stroke-opacity="1" stroke-linecap="round" stroke-linejoin="round" stroke-miterlimit="10" stroke-width="6.5"/><path fill="none" stroke="rgb(255,255,255)" paint-order="fill stroke markers" d=" M 808.135208304473 426.40797168053933 L 816.8037945654384 435.51074648846105 L 825.0192004263674 444.49005562528555 L 832.3282454872242 453.22243341991566 L 838.2777493479721 461.58441420125416 L 842.4528910563404 469.4619493689255 L 843.8383395458139 473.2062149594077 L 844.7696485525692 476.82219995269605 L 845.313033247256 483.6738239338636 L 845.1819114353741 485.30831072238294 L 844.9467014998537 486.91171081482906 L 844.1694153990647 490.025812884773 L 842.9919712272219 493.0172540902387 L 841.4251652666585 495.8871583777691 L 837.166653108701 501.2668519851964 L 834.4965394759728 503.7788891981796 L 831.4802491838556 506.1738852793999 L 824.4523237507857 510.61724983272427 L 816.1692470681551 514.6059372175143 L 806.7173893946268 518.1489390061148 L 801.5801583921086 519.7561176682017 L 796.1831209888647 521.2552467708705 L 790.5370734672283 522.6474502606642 L 784.6528121095322 523.933852084126 L 778.5411331981093 525.1155761877991 L 772.2128330152926 526.1937465182264 L 765.678707843415 527.169487021951 L 758.9495539648096 528.0439216455161 L 752.036167661809 528.8181743354648 L 744.9493452167465 529.4933690383401 L 737.6998829119548 530.0706297006852 L 730.2985770297669 530.5510802690433 L 722.7562238525155 530.9358446899571 L 715.083619662534 531.22604690997 L 707.2915607421552 531.4228108756251 L 699.3908433737117 531.5272605334654 L 691.3922638395368 531.540519830034 L 683.3066184219633 531.4637127118741 L 675.1447034033241 531.2979631255287 L 666.9173150659523 531.0443950175409 L 658.6352496921805 530.7041323344537 L 650.3093035643421 530.2782990228104 L 641.9502729647695 529.768019029154 L 633.5689541757961 529.1744163000276 L 625.1761434797547 528.4986147819743 L 616.782637158978 527.7417384215371 L 608.3992314957993 526.9049111652593 L 600.0367227725512 525.9892569596838 L 591.705907271567 524.9958997513538 L 583.4175812751793 523.9259634868123 L 575.1825410657209 522.7805721126026 L 567.0115829255254 521.5608495752676 L 558.9155031369253 520.2679198213505 L 550.9050979822533 518.9029067973943 L 542.9911637438427 517.4669344499422 L 535.1844967040264 515.9611267255372 L 527.4958931451373 514.3866075707224 L 519.9361493495082 512.744500932041 L 512.5160615994723 511.03593075603595 L 505.24642617736214 509.2620209892505 L 498.1380393655111 507.42389557822764 L 491.2016974462519 505.52267846951054 L 484.4481967019175 503.55949360964223 L 477.88833466020947 501.5354646960386 L 471.53724035004257 499.4508489341468 L 465.4240749639467 497.3030964756035 L 459.5808361015372 495.08909006508134 L 454.0395213624281 492.8057124472531 L 448.83212834623623 490.44984636679146 L 443.9906546525748 488.01837456836915 L 435.5334556313054 482.91614479633336 L 428.89657785151167 477.4784506269222 L 426.27267385918935 474.63688699352815 L 424.0988037572379 471.71824655129666 L 422.36509269673445 468.7261011856607 L 421.06166582875323 465.66402278205254 L 420.17864830437 462.5355832259058 L 419.7061652746619 459.3443544026527 L 419.63434189070244 456.0939081977269 L 419.9533033035682 452.78781649656077 L 421.72408112407925 446.02298414723947 L 423.15614783387537 442.57138726995026 L 424.9394999447995 439.07843243815245 L 429.52056097433456 431.9827364527629 L 435.3882654212895 424.7644712745336 L 442.4636144942708 417.4522119869288 L 450.6676094018805 410.07453367341105 L 459.9212513527281 402.66001141744357 L 464.91700284705314 398.94786352462364 L 470.14554155541634 395.23722030248985 L 475.59699262889114 391.5316536364754 L 481.2614812185517 387.8347354120131 L 487.12913247547385 384.15003751453565 L 493.19007155073774 380.4811318294767 L 499.4344235954146 376.83159024226796 L 505.85231376058243 373.2049846383432 L 512.4338671973147 369.604886903135 L 519.1692090566893 366.03486892207656 L 526.0484644897783 362.4985025806003 L 533.0617586476626 358.9993597641398 L 540.1992166814142 355.5410123581279 L 547.4509637421096 352.1270322479969 L 554.8071249808266 348.76099131918 L 562.2578255486375 345.44646145710976 L 569.7931905966185 342.1870145472196 L 577.4033452758468 338.9862224749423 L 585.0784147373984 335.84765712571124 L 592.8085241323456 332.7748903849581 L 600.5837986117698 329.7714941381174 L 608.3943633267404 326.8410402706202 L 616.230343428337 323.9871006679007 L 624.0818640676331 321.2132472153916 L 631.9390503957075 318.5230517985252 L 639.7920275636326 315.9200863027355 L 647.6309207224851 313.4079226134547 L 655.445855023343 310.99013261611555 L 663.2269556172798 308.67028819615143 L 670.9643476553672 306.45196123899484 L 678.6481562886863 304.33872363007913 L 686.2685066683123 302.3341472548367 L 693.8155239453215 300.4418039987009 L 701.2793332707872 298.6652657471042 L 708.6500597957862 297.00810438547995 L 715.9178286713932 295.4738917992603 L 723.0727650486832 294.0661998738799 L 730.1049940787328 292.7886004947695 L 737.00464091262 291.6446655473628 L 743.7618220371016 290.637973197807 L 750.362120594232 289.77538780823727 L 756.7791698477228 289.07243614015215 L 762.9846571479245 288.5460555366426 L 768.9502698451911 288.2131833408303 L 774.6476952898697 288.0907568958064 L 780.048620832308 288.1957135446894 L 789.8477216118748 289.1555254965802 L 798.1476230894673 291.2099232357324 L 801.725046041604 292.6485096001827 L 804.9305074234245 294.3514062028961 L 807.7713654289082 296.31110710639405 L 810.2549782520216 298.52010637317653 L 812.3887040867438 300.97089806575894 L 814.1799011270507 303.65597624665355 L 815.6359275669058 306.5678349783695 L 816.7641416002973 309.698968323416 L 818.066565223566 316.58903510354537 L 818.2554912013888 320.3329566636496 L 818.1460375486425 324.2661290871321 L 817.0614241273188 332.67020277424825 L 814.8715905113835 341.7412086649783 L 811.635402252635 351.41909925941115 L 809.6433206171355 356.4668614767907 L 807.4117249028559 361.6438270576297 L 804.9479733037689 366.94249006443437 L 802.2594240138474 372.3553445597169 L 799.3534352270673 377.8748846059865 L 796.2373651374014 383.4936042657585 L 792.9185719388227 389.203997601533 L 789.4044138253007 394.99855867583136 L 785.7022489908207 400.8697815511567 L 781.8194356293465 406.8101602900182 L 777.7633319348598 412.81218895493737 L 773.5412961013305 418.86836160841113 L 769.1606863227316 424.971172312961 L 764.6288607930359 431.11311513109 L 759.9531777062191 437.2866841253166 L 755.1409952562634 443.4843733581407 L 750.1996716371294 449.6986768920777 L 745.1365650427991 455.922088789643 L 739.9590336672422 462.14710311333647 L 734.6744357044287 468.36621392567355 L 729.2901293483526 474.57191528917264 L 723.8134727929626 480.75670126633065 L 718.2518242322557 486.913065919666 L 712.6125418601865 493.0335033116879 L 706.9029838707402 499.1105075049055 L 701.1305084578833 505.1365725618343 L 695.302473815601 511.1041925449741 L 689.426238137854 517.0058615168466 L 683.5091596186275 522.8340735399546 L 677.5585964518847 528.5813226768106 L 671.581906831608 534.2401029899268 L 665.586448951767 539.8029085418124 L 659.5795810063378 545.2622333949796 L 653.5686611892993 550.6105716119378 L 647.5610476946089 555.8404172551959 L 641.5640987162672 560.9442643872634 L 635.5851724482254 565.9146070706556 L 629.6316270844657 570.7439393678816 L 623.7108208189547 575.4247553414444 L 617.8301118456837 579.9495490538627 L 611.9968583586103 584.3108145676423 L 606.2184185517165 588.5010459452957 L 600.5021506189657 592.5127372493413 L 594.8554298428008 596.3383507742748 L 589.288759566837 599.9645336434173 L 583.8193936738352 603.3653835003237 L 578.4654650318503 606.5133639252815 L 573.2451065089622 609.3809384986026 L 563.2776312927581 614.1647244111768 L 554.0620309698114 617.4964498800871 L 545.7252112122103 619.187478193989 L 541.8937957871764 619.4149290586188 L 538.282573655995 619.2435642190937 L 534.8881723505788 618.6833387794874 L 531.7072194028278 617.7442078439346 L 528.7363423446548 616.4361265165273 L 525.9721687079723 614.7690499013698 L 523.4113260246866 612.7529331025662 L 521.0504418267103 610.3977312242145 L 516.9150590143086 604.7098926452836 L 515.1338154637019 601.3971661528882 L 513.5390405260458 597.7851749973861 L 510.8954066171857 589.7032191133554 L 508.9571775430039 580.5436658259882 L 508.24415864869883 575.5846779163371 L 507.6973735587856 570.3861559681428 L 507.3134498051829 564.958055085528 L 507.0890149197911 559.310330372597 L 507.0206964345165 553.4529369334416 L 507.10512188129013 547.3958298721784 L 507.338918792003 541.1489642929238 L 507.71871469856154 534.7222952997327 L 508.24113713288443 528.1257779967464 L 508.9028136268719 521.3693674880566 L 509.70037171244576 514.4630188777552 L 510.6304389215124 507.4166872699835 L 511.68964278596593 500.24032776877164 L 512.8746108377251 492.9438954782854 L 514.1819706087023 485.53734550260447 L 515.6083496308072 478.0306329458329 L 517.1503754359429 470.4337129120873 L 518.8046755560252 462.7565405054471 L 520.5678775229544 455.0090708300289 L 522.4366088686461 447.2012589899123 L 524.4074971250034 439.34306008922596 L 526.4771698239514 431.4444292320619 L 528.6422544973749 423.5153215225243 L 530.8993786772018 415.565692064705 L 533.2451698953354 407.6054959627451 L 535.676255683676 399.6446883206873 L 538.1892635741485 391.693224242685 L 540.7808210986592 383.7610588328178 L 543.4475557891024 375.8581471951898 L 546.1860951774025 367.994444433893 L 548.9930667954541 360.1799056530438 L 551.865098175188 352.4244859567465 L 554.7988168484983 344.7381404491175 L 557.7908503472913 337.13082423421173 L 560.8378262034797 329.6124924161704 L 563.9363719489729 322.1931000990977 L 567.0831151156927 314.8826023870731 L 570.2746832355333 307.6909543842132 L 573.5077038403979 300.6281111946099 L 576.7788044622114 293.70402792236723 L 580.0846126328709 286.92865967160185 L 583.4217558843075 280.3119615464056 L 586.7868617483967 273.863888650895 L 590.1765577570636 267.59439608914954 L 593.5874714422267 261.5134389652734 L 597.0162265167542 255.6310578063652 L 600.4591047742555 249.96494109189672 L 603.911780402845 244.5463680467387 L 610.8289704162908 234.58256424188414 L 617.7326898430395 226.00106894676316 L 624.5878319690514 219.06330471653456 L 631.362250187018 213.98961689700093 L 634.7138885018927 212.1547928818188 L 638.0401023698566 210.7740946226416 L 641.3396100845594 209.8370893959327 L 644.6111299396547 209.3333444781555 L 647.8533802287799 209.25242714582262 L 651.0650792455906 209.58390467542213 L 654.2449452837329 210.31734434341732 L 657.3916966368563 211.44231342634558 L 663.5807284626319 214.82510894285465 L 669.6219210721063 219.64882943690276 L 675.5050208144578 225.83001312036941 L 681.21977403888 233.28519820515874 L 686.7559270945453 241.93092290319947 L 692.1032263306487 251.68372542646975 L 694.7028515004822 256.9491990637151 L 697.25141809637 262.46014398677505 L 699.7476444119538 268.20612747208827 L 702.1902487408906 274.17671679611817 L 704.5779493768239 280.36147923540204 L 706.9094646134029 286.74998206640316 L 709.1835127442693 293.33179256558503 L 711.3988120630818 300.0964780095096 L 713.5540808634804 307.0336056746155 L 715.648037439121 314.13274283736615 L 717.6794000836451 321.3834567743482 L 719.6468870906958 328.775314761951 L 721.5492167539336 336.29788407666257 L 723.3851073670014 343.9407319951189 L 725.1532772235444 351.69342579363536 L 726.8524446172116 359.54553274874934 L 728.4813278416557 367.4866201370228 L 730.0386451905183 375.5062552348698 L 731.5231149574552 383.59400531880294 L 732.9334554361016 391.73943766531033 L 734.2683849201194 399.9321195509046 L 735.5266217031502 408.1616182520244 L 736.7068840788421 416.4175010452318 L 737.8078903408443 424.6893352069408 L 738.8283587828047 432.96668801371345 L 739.7670076983696 441.2391267419884 L 740.6225553811886 449.49621866820434 L 741.3937201249108 457.7275310689972 L 742.0792202231812 465.92263122075644 L 742.6777739696522 474.07108639997006 L 743.1880996579686 482.16246388315074 L 743.6089155817797 490.1863309468111 L 743.938940034729 498.13225486738986 L 744.1768913104748 505.9898029213751 L 744.3214877026561 513.7485423853287 L 744.3714475049267 521.3980405356648 L 744.3254890109266 528.9278646489207 L 744.1823305143103 536.3275820015597 L 743.9406903087267 543.5867598700945 L 743.5992866878239 550.6949655309886 L 743.1568379452452 557.6417662607545 L 742.6119971830119 564.4165759055151 L 741.960011657723 571.0007925606246 L 741.1911214455107 577.3640297841 L 740.295166177776 583.474958676368 L 739.2619854859445 589.302250337757 L 738.081419001516 594.8145758689899 L 736.7433063557434 599.9806063703948 L 733.5538011062633 609.1484666853302 L 729.6291138533824 616.598188260432 L 727.3955196727687 619.6762159788883 L 724.9886296339286 622.3347975082469 L 722.4140989784462 624.5827694599884 L 719.6775829478566 626.4289684453227 L 716.7847367836087 627.8822310758534 L 713.7412157273237 628.9513939627409 L 710.5526750204012 629.6452937175891 L 707.224769904413 629.972766951632 L 700.1734874113434 629.5637803029541 L 692.6326101801611 627.7951269078133 L 684.6473801430232 624.7374996573399 L 676.2630392320622 620.4615914425414 L 667.5248293794106 615.0380951545976 L 658.4779925172502 608.5377036845407 L 649.167770577615 601.0311099233779 L 639.6394054927362 592.5890067622644 L 629.9381391946473 583.2820870922569 L 625.0368061944622 578.3264125948301 L 620.1092136155552 573.1810438044122 L 615.161016699375 567.8548173323114 L 610.1978706875675 562.3565697898359 L 605.2254308214831 556.6951377884911 L 600.2493523427676 550.8793579395357 L 595.2752904928944 544.9180668545245 L 590.3089005133618 538.820101144716 L 585.3558376457169 532.5942974215665 L 580.4217571314086 526.2494922963841 L 575.512314212083 519.7945223805755 L 570.6331641291147 513.238224285646 L 565.7899621241498 506.5894346227558 L 560.9883634385878 499.85699000345966 L 556.2340233140253 493.0497270390656 L 551.5325969919357 486.1764823410544 L 546.8897397138666 479.2460925206848 L 542.3111067212665 472.2673941894375 L 537.8023532557322 465.24922395864525 L 533.3691345588111 458.20041843961627 L 529.0171058719026 451.1298142439298 L 524.7519224365788 444.0462479828693 L 520.5792394943624 436.95855626776756 L 516.504712286776 429.8755757101053 L 512.5339960553425 422.80614292116593 L 508.6727460415107 415.7590945124055 L 504.92661748687715 408.74326709520614 L 501.3012656329153 401.7674972809499 L 497.8023457211726 394.8406216809449 L 494.4355129931224 387.97147690672114 L 491.2064226903121 381.1688995695867 L 488.1207300542644 374.44172628084976 L 485.1840903265021 367.7987936519417 L 482.4021587484739 361.2489382943186 L 479.78059056175186 354.80099681933774 L 477.3252829656109 348.46400248641885 L 475.05033943532646 342.25365809211985 L 472.9798772700492 336.19380503227796 L 471.13862173439577 330.30877881600776 L 469.5512980917009 324.62291495370556 L 468.2426316060883 319.1605489551762 L 467.23734754168146 313.9460163300272 L 466.23582773159893 304.35779323948384 L 466.7032942817747 296.016955782968 L 467.48268187789677 292.3166849569344 L 468.6128620853748 288.92222244391974 L 470.084101696012 285.8278500861323 L 471.88666750180886 283.02784972602694 L 474.01082629466714 280.51650320583667 L 476.4468448666365 278.2880923678438 L 479.1849900094709 276.3368990544784 L 482.21552851521994 274.6572051079243 L 489.1148527835625 272.0894426846501 L 497.0669520068293 270.53905983650134 L 505.99396052082636 269.9603113020074 L 515.8180126609653 270.3074518196979 L 521.0420970707465 270.8139350787995 L 526.461242762855 271.5347361278803 L 532.0657165294389 272.4641368092473 L 537.8457851622521 273.5964189651827 L 543.7917154531966 274.9258644380675 L 549.8937741943712 276.44675507010993 L 556.1422281776778 278.15337270359237 L 562.5273441950675 280.0399991810189 L 569.039389038442 282.10091634454864 L 575.6686294997032 284.3304060364144 L 582.4053323709502 286.7227500991205 L 589.2397644440847 289.27223037492456 L 596.1621925109099 291.9731287060348 L 603.1628833634754 294.8197269348568 L 610.2321037937326 297.8063069036976 L 617.3601205937802 300.9271504547654 L 624.5372005552737 304.1765394304905 L 631.7536104702133 307.5487556731305 L 638.9996171308461 311.0380810249923 L 646.2654873286302 314.6387973284076 L 653.5414878558616 318.34518642568315 L 660.8178855044424 322.1515301591261 L 668.0849470663235 326.05211037104317 L 675.3329393333081 330.04120890371684 L 682.5521290974954 334.1131075995279 L 689.7327831506883 338.26208830068475 L 696.8651682850353 342.48243284954356 L 703.939551292241 346.7684230885099 L 710.9461989643551 351.1143408598414 L 717.8753780934766 355.5144680056971 L 724.7173554713593 359.9630863685319 L 731.4623978899544 364.45447779075124 L 738.1007721412623 368.98292411436626 L 744.6227450173327 373.54270718197984 L 751.0185833099196 378.1281088357508 L 757.2785538109738 382.7334109180356 L 763.3929233125947 387.35289527119033 L 769.3519586066839 391.9808437374234 L 775.145926485143 396.6115381590417 L 780.7650937399235 401.2392603785001 L 786.199727162927 405.85829223795764 L 791.4400935462526 410.46291557977054 L 801.2990923611811 419.6060640797888 L 810.2649854173302 428.62317110860334 L 818.3553194723111 437.4948859412153 L 825.7728745363047 446.2531000883381 L 832.7419102734336 454.9356471118673 L 839.4866863468346 463.5803605735503" stroke-opacity="1" stroke-linecap="round" stroke-linejoin="round" stroke-miterlimit="10" stroke-width="6.5"/><path fill="rgb(255,0,0)" stroke="none" paint-order="stroke fill markers" d=" M 817.1352083044732 426.40797168053933 C 817.1352083044732 431.3785344290165 813.1057710529503 435.40797168053933 808.1352083044732 435.40797168053933 C 803.164645555996 435.40797168053933 799.1352083044732 431.3785344290165 799.1352083044732 426.40797168053933 C 799.1352083044732 421.43740893206217 803.164645555996 417.40797168053933 808.1352083044732 417.40797168053933 C 813.1057710529503 417.40797168053933 817.1352083044732 421.43740893206217 817.1352083044732 426.40797168053933 Z" fill-opacity="1"/><path fill="none" stroke="rgb(0,0,0)" paint-order="fill stroke markers" d=" M 817.1352083044732 426.40797168053933 C 817.1352083044732 431.3785344290165 813.1057710529503 435.40797168053933 808.1352083044732 435.40797168053933 C 803.164645555996 435.40797168053933 799.1352083044732 431.3785344290165 799.1352083044732 426.40797168053933 C 799.1352083044732 421.43740893206217 803.164645555996 417.40797168053933 808.1352083044732 417.40797168053933 C 813.1057710529503 417.40797168053933 817.1352083044732 421.43740893206217 817.1352083044732 426.40797168053933 Z" stroke-opacity="1" stroke-linecap="round" stroke-linejoin="round" stroke-miterlimit="10"/><path fill="rgb(0,108,255)" stroke="none" paint-order="stroke fill markers" d=" M 487.3451148308247 501.6804084344173 C 487.3451148308247 506.65097118289447 483.31567757930185 510.6804084344173 478.3451148308247 510.6804084344173 C 473.3745520823475 510.6804084344173 469.3451148308247 506.65097118289447 469.3451148308247 501.6804084344173 C 469.3451148308247 496.70984568594014 473.3745520823475 492.6804084344173 478.3451148308247 492.6804084344173 C 483.31567757930185 492.6804084344173 487.3451148308247 496.70984568594014 487.3451148308247 501.6804084344173 Z" fill-opacity="1"/><path fill="none" stroke="rgb(0,0,0)" paint-order="fill stroke markers" d=" M 487.3451148308247 501.6804084344173 C 487.3451148308247 506.65097118289447 483.31567757930185 510.6804084344173 478.3451148308247 510.6804084344173 C 473.3745520823475 510.6804084344173 469.3451148308247 506.65097118289447 469.3451148308247 501.6804084344173 C 469.3451148308247 496.70984568594014 473.3745520823475 492.6804084344173 478.3451148308247 492.6804084344173 C 483.31567757930185 492.6804084344173 487.3451148308247 496.70984568594014 487.3451148308247 501.6804084344173 Z" stroke-opacity="1" stroke-linecap="round" stroke-linejoin="round" stroke-miterlimit="10"/><path fill="rgb(255,127,0)" stroke="none" paint-order="stroke fill markers" d=" M 751.8162356819483 290.77172742774354 C 751.8162356819483 295.7422901762207 747.7867984304255 299.77172742774354 742.8162356819483 299.77172742774354 C 737.8456729334712 299.77172742774354 733.8162356819483 295.7422901762207 733.8162356819483 290.77172742774354 C 733.8162356819483 285.8011646792664 737.8456729334712 281.77172742774354 742.8162356819483 281.77172742774354 C 747.7867984304255 281.77172742774354 751.8162356819483 285.8011646792664 751.8162356819483 290.77172742774354 Z" fill-opacity="1"/><path fill="none" stroke="rgb(0,0,0)" paint-order="fill stroke markers" d=" M 751.8162356819483 290.77172742774354 C 751.8162356819483 295.7422901762207 747.7867984304255 299.77172742774354 742.8162356819483 299.77172742774354 C 737.8456729334712 299.77172742774354 733.8162356819483 295.7422901762207 733.8162356819483 290.77172742774354 C 733.8162356819483 285.8011646792664 737.8456729334712 281.77172742774354 742.8162356819483 281.77172742774354 C 747.7867984304255 281.77172742774354 751.8162356819483 285.8011646792664 751.8162356819483 290.77172742774354 Z" stroke-opacity="1" stroke-linecap="round" stroke-linejoin="round" stroke-miterlimit="10"/><path fill="rgb(75,0,255)" stroke="none" paint-order="stroke fill markers" d=" M 605.0458364633553 595.5436017886162 C 605.0458364633553 600.5141645370934 601.0163992118324 604.5436017886162 596.0458364633553 604.5436017886162 C 591.0752737148781 604.5436017886162 587.0458364633553 600.5141645370934 587.0458364633553 595.5436017886162 C 587.0458364633553 590.5730390401391 591.0752737148781 586.5436017886162 596.0458364633553 586.5436017886162 C 601.0163992118324 586.5436017886162 605.0458364633553 590.5730390401391 605.0458364633553 595.5436017886162 Z" fill-opacity="1"/><path fill="none" stroke="rgb(0,0,0)" paint-order="fill stroke markers" d=" M 605.0458364633553 595.5436017886162 C 605.0458364633553 600.5141645370934 601.0163992118324 604.5436017886162 596.0458364633553 604.5436017886162 C 591.0752737148781 604.5436017886162 587.0458364633553 600.5141645370934 587.0458364633553 595.5436017886162 C 587.0458364633553 590.5730390401391 591.0752737148781 586.5436017886162 596.0458364633553 586.5436017886162 C 601.0163992118324 586.5436017886162 605.0458364633553 590.5730390401391 605.0458364633553 595.5436017886162 Z" stroke-opacity="1" stroke-linecap="round" stroke-linejoin="round" stroke-miterlimit="10"/><path fill="rgb(255,255,0)" stroke="none" paint-order="stroke fill markers" d=" M 605.0458364633554 257.27234157246244 C 605.0458364633554 262.2429043209396 601.0163992118325 266.27234157246244 596.0458364633554 266.27234157246244 C 591.0752737148782 266.27234157246244 587.0458364633554 262.2429043209396 587.0458364633554 257.27234157246244 C 587.0458364633554 252.3017788239853 591.0752737148782 248.27234157246244 596.0458364633554 248.27234157246244 C 601.0163992118325 248.27234157246244 605.0458364633554 252.3017788239853 605.0458364633554 257.27234157246244 Z" fill-opacity="1"/><path fill="none" stroke="rgb(0,0,0)" paint-order="fill stroke markers" d=" M 605.0458364633554 257.27234157246244 C 605.0458364633554 262.2429043209396 601.0163992118325 266.27234157246244 596.0458364633554 266.27234157246244 C 591.0752737148782 266.27234157246244 587.0458364633554 262.2429043209396 587.0458364633554 257.27234157246244 C 587.0458364633554 252.3017788239853 591.0752737148782 248.27234157246244 596.0458364633554 248.27234157246244 C 601.0163992118325 248.27234157246244 605.0458364633554 252.3017788239853 605.0458364633554 257.27234157246244 Z" stroke-opacity="1" stroke-linecap="round" stroke-linejoin="round" stroke-miterlimit="10"/><path fill="rgb(255,0,255)" stroke="none" paint-order="stroke fill markers" d=" M 751.8162356819482 562.0442159333352 C 751.8162356819482 567.0147786818123 747.7867984304254 571.0442159333352 742.8162356819482 571.0442159333352 C 737.8456729334711 571.0442159333352 733.8162356819482 567.0147786818123 733.8162356819482 562.0442159333352 C 733.8162356819482 557.073653184858 737.8456729334711 553.0442159333352 742.8162356819482 553.0442159333352 C 747.7867984304254 553.0442159333352 751.8162356819482 557.073653184858 751.8162356819482 562.0442159333352 Z" fill-opacity="1"/><path fill="none" stroke="rgb(0,0,0)" paint-order="fill stroke markers" d=" M 751.8162356819482 562.0442159333352 C 751.8162356819482 567.0147786818123 747.7867984304254 571.0442159333352 742.8162356819482 571.0442159333352 C 737.8456729334711 571.0442159333352 733.8162356819482 567.0147786818123 733.8162356819482 562.0442159333352 C 733.8162356819482 557.073653184858 737.8456729334711 553.0442159333352 742.8162356819482 553.0442159333352 C 747.7867984304254 553.0442159333352 751.8162356819482 557.073653184858 751.8162356819482 562.0442159333352 Z" stroke-opacity="1" stroke-linecap="round" stroke-linejoin="round" stroke-miterlimit="10"/><path fill="rgb(0,255,0)" stroke="none" paint-order="stroke fill markers" d=" M 487.3451148308247 351.1355349266613 C 487.3451148308247 356.10609767513847 483.31567757930185 360.1355349266613 478.3451148308247 360.1355349266613 C 473.3745520823475 360.1355349266613 469.3451148308247 356.10609767513847 469.3451148308247 351.1355349266613 C 469.3451148308247 346.16497217818414 473.3745520823475 342.1355349266613 478.3451148308247 342.1355349266613 C 483.31567757930185 342.1355349266613 487.3451148308247 346.16497217818414 487.3451148308247 351.1355349266613 Z" fill-opacity="1"/><path fill="none" stroke="rgb(0,0,0)" paint-order="fill stroke markers" d=" M 487.3451148308247 351.1355349266613 C 487.3451148308247 356.10609767513847 483.31567757930185 360.1355349266613 478.3451148308247 360.1355349266613 C 473.3745520823475 360.1355349266613 469.3451148308247 356.10609767513847 469.3451148308247 351.1355349266613 C 469.3451148308247 346.16497217818414 473.3745520823475 342.1355349266613 478.3451148308247 342.1355349266613 C 483.31567757930185 342.1355349266613 487.3451148308247 346.16497217818414 487.3451148308247 351.1355349266613 Z" stroke-opacity="1" stroke-linecap="round" stroke-linejoin="round" stroke-miterlimit="10"/></g></g></svg>